<mxfile host="app.diagrams.net" modified="2021-04-15T20:46:54.843Z" agent="5.0 (Windows)" etag="59gwiaXf8tLgS9AhKTPs" version="14.6.1" type="github">
  <diagram id="wFE0QG_FPsp0jaGvCLVb" name="Page-1">
    <mxGraphModel dx="5688" dy="3092" grid="1" gridSize="10" guides="1" tooltips="1" connect="1" arrows="1" fold="1" page="0" pageScale="1" pageWidth="850" pageHeight="1100" math="0" shadow="0">
      <root>
        <mxCell id="0" />
        <mxCell id="1" parent="0" />
        <mxCell id="BeZ31XqwgEyTNtRxmAYA-7" value="" style="rounded=0;whiteSpace=wrap;html=1;dashed=1;" vertex="1" parent="1">
          <mxGeometry x="240" y="390" width="430" height="60" as="geometry" />
        </mxCell>
        <mxCell id="BeZ31XqwgEyTNtRxmAYA-2" value="" style="rounded=0;whiteSpace=wrap;html=1;" vertex="1" parent="1">
          <mxGeometry x="70" width="770" height="2440" as="geometry" />
        </mxCell>
        <mxCell id="BeZ31XqwgEyTNtRxmAYA-3" value="" style="rounded=0;whiteSpace=wrap;html=1;dashed=1;" vertex="1" parent="1">
          <mxGeometry x="70" width="770" height="60" as="geometry" />
        </mxCell>
        <mxCell id="BeZ31XqwgEyTNtRxmAYA-4" value="" style="rhombus;whiteSpace=wrap;html=1;dashed=1;" vertex="1" parent="1">
          <mxGeometry x="392.5" width="125" height="100" as="geometry" />
        </mxCell>
        <mxCell id="BeZ31XqwgEyTNtRxmAYA-6" value="&lt;h1&gt;Heading&lt;/h1&gt;&lt;p&gt;Lorem ipsum dolor sit amet, consectetur adipisicing elit, sed do eiusmod tempor incididunt ut labore et dolore magna aliqua.&lt;/p&gt;" style="text;html=1;strokeColor=none;fillColor=none;spacing=5;spacingTop=-20;whiteSpace=wrap;overflow=hidden;rounded=0;dashed=1;" vertex="1" parent="1">
          <mxGeometry x="142.5" y="160" width="250" height="120" as="geometry" />
        </mxCell>
        <mxCell id="BeZ31XqwgEyTNtRxmAYA-11" value="" style="rounded=0;whiteSpace=wrap;html=1;dashed=1;" vertex="1" parent="1">
          <mxGeometry x="70" y="420" width="380" height="360" as="geometry" />
        </mxCell>
        <mxCell id="BeZ31XqwgEyTNtRxmAYA-13" value="" style="endArrow=none;dashed=1;html=1;" edge="1" parent="1">
          <mxGeometry width="50" height="50" relative="1" as="geometry">
            <mxPoint x="65" y="424" as="sourcePoint" />
            <mxPoint x="850" y="424" as="targetPoint" />
          </mxGeometry>
        </mxCell>
        <mxCell id="BeZ31XqwgEyTNtRxmAYA-8" value="" style="rounded=0;whiteSpace=wrap;html=1;dashed=1;" vertex="1" parent="1">
          <mxGeometry x="260" y="405" width="120" height="30" as="geometry" />
        </mxCell>
        <mxCell id="BeZ31XqwgEyTNtRxmAYA-9" value="" style="rounded=0;whiteSpace=wrap;html=1;dashed=1;" vertex="1" parent="1">
          <mxGeometry x="395" y="405" width="120" height="30" as="geometry" />
        </mxCell>
        <mxCell id="BeZ31XqwgEyTNtRxmAYA-10" value="" style="rounded=0;whiteSpace=wrap;html=1;dashed=1;" vertex="1" parent="1">
          <mxGeometry x="530" y="405" width="120" height="30" as="geometry" />
        </mxCell>
        <mxCell id="BeZ31XqwgEyTNtRxmAYA-14" value="" style="rounded=0;whiteSpace=wrap;html=1;dashed=1;fillColor=none;" vertex="1" parent="1">
          <mxGeometry x="240" y="390" width="430" height="60" as="geometry" />
        </mxCell>
        <mxCell id="BeZ31XqwgEyTNtRxmAYA-15" value="&lt;h1&gt;Heading&lt;/h1&gt;&lt;p&gt;Lorem ipsum dolor sit amet, consectetur adipisicing elit, sed do eiusmod tempor incididunt ut labore et dolore magna aliqua.&lt;/p&gt;&lt;p&gt;Lorem ipsum dolor sit amet, consectetur adipisicing elit, sed do eiusmod tempor incididunt ut labore et dolore magna aliqua.&lt;/p&gt;" style="text;html=1;strokeColor=none;fillColor=none;spacing=5;spacingTop=-20;whiteSpace=wrap;overflow=hidden;rounded=0;dashed=1;" vertex="1" parent="1">
          <mxGeometry x="480" y="525" width="260" height="160" as="geometry" />
        </mxCell>
        <mxCell id="BeZ31XqwgEyTNtRxmAYA-16" value="" style="rounded=0;whiteSpace=wrap;html=1;dashed=1;" vertex="1" parent="1">
          <mxGeometry x="450" y="780" width="390" height="350" as="geometry" />
        </mxCell>
        <mxCell id="BeZ31XqwgEyTNtRxmAYA-18" value="&lt;h1&gt;Heading&lt;/h1&gt;&lt;p&gt;Lorem ipsum dolor sit amet, consectetur adipisicing elit, sed do eiusmod tempor incididunt ut labore et dolore magna aliqua.&lt;/p&gt;&lt;p&gt;Lorem ipsum dolor sit amet, consectetur adipisicing elit, sed do eiusmod tempor incididunt ut labore et dolore magna aliqua.&lt;/p&gt;" style="text;html=1;strokeColor=none;fillColor=none;spacing=5;spacingTop=-20;whiteSpace=wrap;overflow=hidden;rounded=0;dashed=1;" vertex="1" parent="1">
          <mxGeometry x="137.5" y="875" width="260" height="160" as="geometry" />
        </mxCell>
        <mxCell id="BeZ31XqwgEyTNtRxmAYA-19" value="" style="rounded=0;whiteSpace=wrap;html=1;dashed=1;" vertex="1" parent="1">
          <mxGeometry x="70" y="1130" width="380" height="350" as="geometry" />
        </mxCell>
        <mxCell id="BeZ31XqwgEyTNtRxmAYA-20" value="" style="rounded=0;whiteSpace=wrap;html=1;dashed=1;" vertex="1" parent="1">
          <mxGeometry x="450" y="1130" width="390" height="350" as="geometry" />
        </mxCell>
        <mxCell id="BeZ31XqwgEyTNtRxmAYA-21" value="" style="rounded=0;whiteSpace=wrap;html=1;dashed=1;fillColor=none;" vertex="1" parent="1">
          <mxGeometry x="150" y="1550" width="260" height="170" as="geometry" />
        </mxCell>
        <mxCell id="BeZ31XqwgEyTNtRxmAYA-22" value="&lt;h1&gt;Heading&lt;/h1&gt;&lt;p&gt;Lorem ipsum dolor sit amet, consectetur adipisicing elit, sed do eiusmod tempor incididunt ut labore et dolore magna aliqua.&lt;/p&gt;" style="text;html=1;strokeColor=none;fillColor=none;spacing=5;spacingTop=-20;whiteSpace=wrap;overflow=hidden;rounded=0;dashed=1;" vertex="1" parent="1">
          <mxGeometry x="485" y="1577.5" width="210" height="115" as="geometry" />
        </mxCell>
        <mxCell id="BeZ31XqwgEyTNtRxmAYA-23" value="" style="rounded=0;whiteSpace=wrap;html=1;dashed=1;fillColor=none;" vertex="1" parent="1">
          <mxGeometry x="460" y="1790" width="260" height="170" as="geometry" />
        </mxCell>
        <mxCell id="BeZ31XqwgEyTNtRxmAYA-24" value="&lt;h1&gt;Heading&lt;/h1&gt;&lt;p&gt;Lorem ipsum dolor sit amet, consectetur adipisicing elit, sed do eiusmod tempor incididunt ut labore et dolore magna aliqua.&lt;/p&gt;" style="text;html=1;strokeColor=none;fillColor=none;spacing=5;spacingTop=-20;whiteSpace=wrap;overflow=hidden;rounded=0;dashed=1;" vertex="1" parent="1">
          <mxGeometry x="175" y="1817.5" width="210" height="115" as="geometry" />
        </mxCell>
        <mxCell id="BeZ31XqwgEyTNtRxmAYA-25" value="" style="rounded=0;whiteSpace=wrap;html=1;dashed=1;fillColor=none;" vertex="1" parent="1">
          <mxGeometry x="150" y="2030" width="260" height="170" as="geometry" />
        </mxCell>
        <mxCell id="BeZ31XqwgEyTNtRxmAYA-26" value="&lt;h1&gt;Heading&lt;/h1&gt;&lt;p&gt;Lorem ipsum dolor sit amet, consectetur adipisicing elit, sed do eiusmod tempor incididunt ut labore et dolore magna aliqua.&lt;/p&gt;" style="text;html=1;strokeColor=none;fillColor=none;spacing=5;spacingTop=-20;whiteSpace=wrap;overflow=hidden;rounded=0;dashed=1;" vertex="1" parent="1">
          <mxGeometry x="485" y="2057.5" width="210" height="115" as="geometry" />
        </mxCell>
        <mxCell id="BeZ31XqwgEyTNtRxmAYA-27" value="" style="rounded=0;whiteSpace=wrap;html=1;dashed=1;fillColor=none;" vertex="1" parent="1">
          <mxGeometry x="70" y="2240" width="770" height="200" as="geometry" />
        </mxCell>
        <mxCell id="BeZ31XqwgEyTNtRxmAYA-29" value="&lt;h1&gt;Heading&lt;/h1&gt;&lt;p&gt;Lorem ipsum dolor sit amet, consectetur adipisicing elit, sed do eiusmod tempor incididunt ut labore et dolore magna aliqua.&lt;/p&gt;" style="text;html=1;strokeColor=none;fillColor=none;spacing=5;spacingTop=-20;whiteSpace=wrap;overflow=hidden;rounded=0;dashed=1;" vertex="1" parent="1">
          <mxGeometry x="150" y="2280" width="190" height="120" as="geometry" />
        </mxCell>
        <mxCell id="BeZ31XqwgEyTNtRxmAYA-30" value="&lt;h1&gt;Heading&lt;/h1&gt;&lt;p&gt;Lorem ipsum dolor sit amet, consectetur adipisicing elit, sed do eiusmod tempor incididunt ut labore et dolore magna aliqua.&lt;/p&gt;" style="text;html=1;strokeColor=none;fillColor=none;spacing=5;spacingTop=-20;whiteSpace=wrap;overflow=hidden;rounded=0;dashed=1;" vertex="1" parent="1">
          <mxGeometry x="505" y="2280" width="190" height="120" as="geometry" />
        </mxCell>
      </root>
    </mxGraphModel>
  </diagram>
</mxfile>
